<svg width="101" height="58" viewBox="0 0 101 58" fill="none" xmlns="http://www.w3.org/2000/svg">
<g clip-path="url(#clip0_364_546)">
<path d="M64.4426 27.6627H36.7583C36.0364 27.6627 35.4518 28.2473 35.4518 28.9692V39.9985C35.4518 40.7204 36.0364 41.305 36.7583 41.305H48.2046C48.5186 41.305 48.774 41.0506 48.774 40.7356V35.5571C48.774 35.232 49.0375 34.9685 49.3626 34.9685H51.6939C52.019 34.9685 52.2825 35.232 52.2825 35.5571V40.7356C52.2825 41.0496 52.5369 41.305 52.852 41.305H64.4416C65.1635 41.305 65.7481 40.7204 65.7481 39.9985V28.9692C65.7481 28.2473 65.1635 27.6627 64.4416 27.6627" fill="#EA6A00"/>
<path d="M70.763 35.3985V31.7456L99.5732 37.5773C100.046 37.6732 100.487 37.3117 100.487 36.8301V22.2923C100.487 21.8107 100.046 21.4492 99.5732 21.5452L70.6913 27.3768V23.8673L99.665 18.072C100.1 17.9852 100.413 17.6015 100.411 17.1583L100.173 1.83189C100.166 1.37654 99.7993 1.00903 99.344 0.999945L96.6775 0.948453C96.6391 0.948453 96.6018 0.958549 96.5695 0.979752L69.0436 19.3542L65.6058 17.4925L88.6317 2.053C89.1516 1.70467 88.9002 0.892923 88.2732 0.89999L72.1119 1.08576C71.8504 1.08879 71.6071 1.22005 71.4597 1.43611L61.9529 15.4863L58.8018 13.9819L66.9688 2.09036C67.2999 1.60775 66.9516 0.952492 66.367 0.95653L58.5342 1.01307C58.1071 1.0161 57.7417 1.32 57.6609 1.74001L55.6507 12.1918L52.643 10.4007L54.4563 1.82987C54.5542 1.41592 54.2402 1.01812 53.8142 1.01812H47.1737C46.7477 1.01812 46.4337 1.41592 46.5316 1.82987L48.3449 10.4007L45.3372 12.1918L43.327 1.74001C43.2462 1.32 42.8807 1.0161 42.4537 1.01307L34.6209 0.95653C34.0353 0.952492 33.6879 1.60775 34.0191 2.09036L42.1861 13.9819L39.035 15.4863L29.5262 1.43611C29.3798 1.21904 29.1365 1.08879 28.874 1.08576L12.7136 0.89999C12.0877 0.892923 11.8353 1.70467 12.3552 2.053L35.3811 17.4925L31.9433 19.3542L4.4164 0.979752C4.38409 0.958549 4.34674 0.947443 4.30837 0.948453L1.66917 0.998935C1.09872 1.01004 0.64135 1.47448 0.639331 2.04492L0.574714 17.1583C0.572694 17.6025 0.885683 17.9852 1.32084 18.072L30.2945 23.8673V27.3768L1.41373 21.5441C0.941214 21.4492 0.5 21.8097 0.5 22.2913V36.8291C0.5 37.3107 0.941214 37.6722 1.41373 37.5763L30.2239 31.7446V35.3974L1.83475 41.0353C1.64998 41.0716 1.67724 41.3432 1.86504 41.3432H32.5874L32.6551 23.4382C32.6571 22.8637 32.9741 22.3367 33.48 22.0651L49.7917 13.3226C50.0108 13.2045 50.2511 13.1429 50.4924 13.1318C50.7337 13.1429 50.974 13.2045 51.1941 13.3226L67.5059 22.0651C68.0117 22.3367 68.3288 22.8637 68.3308 23.4382L68.3984 41.3432H98.8412C99.0623 41.3432 99.0936 41.0242 98.8765 40.9808L70.762 35.3985H70.763Z" fill="#EA6A00"/>
<path d="M35.9607 25.1255L64.7153 25.2689C64.894 25.2689 64.9566 25.0276 64.8001 24.9387L50.9932 17.0807C50.6076 16.8616 50.1391 16.8585 49.7514 17.0746L35.8779 24.7943C35.7214 24.8812 35.781 25.1245 35.9597 25.1245" fill="#EA6A00"/>
<path d="M34.2897 45.3183H26.9688C26.8628 45.3183 26.777 45.4042 26.777 45.5102V47.4911C26.777 47.5971 26.8628 47.6819 26.9688 47.6819H29.2445C29.3506 47.6819 29.4364 47.7677 29.4364 47.8737V56.8383C29.4364 56.9444 29.5222 57.0292 29.6282 57.0292H31.6091C31.7151 57.0292 31.801 56.9433 31.801 56.8383V47.8737C31.801 47.7677 31.8868 47.6819 31.9918 47.6819H34.2897C34.3957 47.6819 34.4816 47.5961 34.4816 47.4911V45.5102C34.4816 45.4042 34.3957 45.3183 34.2897 45.3183Z" fill="#EA6A00"/>
<path d="M11.9392 52.2354L12.645 48.2312C12.6722 48.0767 12.8934 48.0767 12.9206 48.2312L13.6264 52.2354C13.6617 52.3586 13.5688 52.4807 13.4416 52.4807H12.125C11.9968 52.4807 11.9049 52.3586 11.9392 52.2354ZM15.1136 56.9575H17.0763C17.2045 56.9575 17.2964 56.8353 17.2621 56.7122L14.0373 45.3547H11.5303L8.30554 56.7122C8.2702 56.8353 8.36309 56.9575 8.49132 56.9575H10.4541C10.5399 56.9575 10.6156 56.8999 10.6398 56.8172L11.1598 54.9847C11.183 54.9019 11.2587 54.8443 11.3456 54.8443H14.2231C14.3089 54.8443 14.3846 54.9019 14.4088 54.9847L14.9288 56.8172C14.952 56.8999 15.0277 56.9575 15.1146 56.9575" fill="#EA6A00"/>
<path d="M70.2228 52.2354L70.9286 48.2312C70.9558 48.0767 71.1769 48.0767 71.2042 48.2312L71.9099 52.2354C71.9453 52.3586 71.8524 52.4807 71.7242 52.4807H70.4076C70.2794 52.4807 70.1875 52.3586 70.2218 52.2354M73.3971 56.9575H75.3599C75.4881 56.9575 75.58 56.8353 75.5456 56.7122L72.3208 45.3547H69.8139L66.5891 56.7122C66.5538 56.8353 66.6467 56.9575 66.7749 56.9575H68.7376C68.8234 56.9575 68.8992 56.8999 68.9224 56.8172L69.4434 54.9847C69.4666 54.9019 69.5423 54.8443 69.6291 54.8443H72.5066C72.5924 54.8443 72.6682 54.9019 72.6924 54.9847L73.2134 56.8172C73.2366 56.8999 73.3123 56.9575 73.3992 56.9575" fill="#EA6A00"/>
<path d="M7.20604 47.6819C7.28782 47.6819 7.35345 47.6163 7.35345 47.5345V45.4647C7.35345 45.383 7.28782 45.3173 7.20604 45.3173H0.687793C0.5838 45.3173 0.5 45.4011 0.5 45.5051V56.8404C0.5 56.9434 0.5838 57.0282 0.686784 57.0282L7.16465 57.0615C7.26864 57.0615 7.35345 56.9777 7.35345 56.8737V54.8867C7.35345 54.7827 7.26965 54.6989 7.16566 54.6989H3.05137C2.94737 54.6989 2.86357 54.6151 2.86357 54.5111V52.407H7.0445C7.12628 52.407 7.19191 52.3414 7.19191 52.2596V50.1899C7.19191 50.1091 7.12628 50.0425 7.0445 50.0425H2.86357V47.6789H7.20604V47.6819Z" fill="#EA6A00"/>
<path d="M56.0898 47.6819C56.1706 47.6819 56.2372 47.6163 56.2372 47.5345V45.4647C56.2372 45.383 56.1716 45.3173 56.0898 45.3173H49.5716C49.4676 45.3173 49.3838 45.4011 49.3838 45.5051V56.8404C49.3838 56.9434 49.4676 57.0282 49.5706 57.0282L56.0484 57.0615C56.1524 57.0615 56.2372 56.9777 56.2372 56.8737V54.8867C56.2372 54.7827 56.1534 54.6989 56.0494 54.6989H51.9352C51.8312 54.6989 51.7474 54.6151 51.7474 54.5111V52.407H55.9283C56.0091 52.407 56.0757 52.3414 56.0757 52.2596V50.1899C56.0757 50.1091 56.0101 50.0425 55.9283 50.0425H51.7474V47.6789H56.0898V47.6819Z" fill="#EA6A00"/>
<path d="M100.353 47.6819C100.433 47.6819 100.5 47.6163 100.5 47.5345V45.4647C100.5 45.383 100.434 45.3173 100.353 45.3173H93.8344C93.7304 45.3173 93.6466 45.4011 93.6466 45.5051V56.8404C93.6466 56.9434 93.7304 57.0282 93.8334 57.0282L100.311 57.0615C100.415 57.0615 100.5 56.9777 100.5 56.8737V54.8867C100.5 54.7827 100.416 54.6989 100.312 54.6989H96.198C96.094 54.6989 96.0102 54.6151 96.0102 54.5111V52.407H100.191C100.272 52.407 100.339 52.3414 100.339 52.2596V50.1899C100.339 50.1091 100.273 50.0425 100.191 50.0425H96.0102V47.6789H100.353V47.6819Z" fill="#EA6A00"/>
<path d="M88.3641 54.5485V45.5415C88.3641 45.4375 88.2803 45.3537 88.1763 45.3537H86.1883C86.0843 45.3537 86.0005 45.4375 86.0005 45.5415V56.8767C86.0005 56.9797 86.0843 57.0645 86.1873 57.0645L92.2037 57.0978C92.3077 57.0978 92.3925 57.014 92.3925 56.91V54.9231C92.3925 54.8191 92.3087 54.7353 92.2047 54.7353H88.5518C88.4479 54.7353 88.3641 54.6515 88.3641 54.5475" fill="#EA6A00"/>
<path d="M40.8957 45.488V49.8456C40.8957 49.9556 40.8059 50.0455 40.6958 50.0455H38.1586C38.0486 50.0455 37.9587 49.9566 37.9587 49.8456V45.488C37.9587 45.3779 37.8688 45.2881 37.7588 45.2881H35.794C35.684 45.2881 35.5941 45.3769 35.5941 45.488V56.8283C35.5941 56.9383 35.683 57.0282 35.794 57.0282H37.7588C37.8688 57.0282 37.9587 56.9383 37.9587 56.8283V52.608C37.9587 52.4979 38.0475 52.4081 38.1586 52.4081H40.6958C40.8059 52.4081 40.8957 52.4979 40.8957 52.608V56.8283C40.8957 56.9383 40.9856 57.0282 41.0957 57.0282H43.0594C43.1695 57.0282 43.2593 56.9383 43.2593 56.8283V45.488C43.2593 45.3779 43.1695 45.2881 43.0594 45.2881H41.0957C40.9856 45.2881 40.8957 45.3769 40.8957 45.488Z" fill="#EA6A00"/>
<path d="M65.4624 45.3002H63.3856C63.3069 45.3002 63.2422 45.3648 63.2422 45.4435V52.1021L60.4142 45.388C60.392 45.3345 60.3395 45.3002 60.282 45.3002H58.1567C58.0779 45.3002 58.0133 45.3648 58.0133 45.4435V56.8858C58.0133 56.9646 58.0779 57.0292 58.1567 57.0292H60.2335C60.3123 57.0292 60.3769 56.9646 60.3769 56.8858V50.8532L62.8394 56.9232C62.8606 56.9767 62.9131 57.012 62.9706 57.013L65.4433 57.0373C65.523 57.0373 65.5876 56.9737 65.5876 56.8939L65.6048 45.4445C65.6048 45.3658 65.5412 45.3012 65.4614 45.3012" fill="#EA6A00"/>
<path d="M22.4395 50.1485H20.6939V47.5436H22.4395C23.1594 47.5436 23.742 48.1272 23.742 48.846C23.742 49.5649 23.1584 50.1485 22.4395 50.1485ZM26.0248 48.8056C26.0248 46.8621 24.4255 45.287 22.4527 45.287L18.5978 45.2739C18.5039 45.2739 18.4272 45.3507 18.4272 45.4445L18.3424 56.7909C18.3424 56.8848 18.4191 56.9615 18.513 56.9615H20.5353C20.6292 56.9615 20.706 56.8848 20.706 56.7909V52.3414H21.6258L23.4482 56.9252C23.4744 56.9898 23.537 57.0332 23.6067 57.0332H25.8259C25.946 57.0332 26.0288 56.9121 25.9844 56.8L24.056 51.9497C25.2231 51.3711 26.0238 50.1808 26.0238 48.8067" fill="#EA6A00"/>
<path d="M82.2578 48.7289C82.2578 49.367 81.7409 49.8839 81.1028 49.8839H79.1602V47.5739H81.1028C81.7409 47.5739 82.2578 48.0908 82.2578 48.7289ZM82.2578 53.5187C82.2578 54.1567 81.7409 54.6828 81.1028 54.6828H79.1602V52.194H81.1028C81.7409 52.194 82.2578 52.7109 82.2578 53.349V53.5187ZM83.329 51.0117C84.057 50.4827 84.4245 49.6275 84.4245 48.6592V48.2826C84.4245 47.164 83.122 45.3729 81.5147 45.3729H76.7068V57.0474H81.6217C83.2291 57.0474 84.5315 55.7449 84.5315 54.1376V53.3652C84.5315 52.3969 84.056 51.5408 83.329 51.0117Z" fill="#EA6A00"/>
</g>
<defs>
<clipPath id="clip0_364_546">
<rect width="100" height="56.1997" fill="white" transform="translate(0.5 0.900145)"/>
</clipPath>
</defs>
</svg>
